<svg width="258" height="130" viewBox="0 0 258 130" fill="none" xmlns="http://www.w3.org/2000/svg">
<rect x="1" y="1" width="256" height="128" rx="8" fill="white"/>
<rect x="1" y="1" width="256" height="128" rx="8" stroke="#F3541C" stroke-width="2"/>
<path opacity="0.4" d="M140 56C140 49.9249 135.075 45 129 45C123.246 45 118.525 49.4172 118.041 55.0454C112.968 55.5282 109 59.8006 109 65C109 70.5228 113.477 75 119 75H140C144.971 75 149 70.9706 149 66C149 61.0294 144.971 57 140 57L139.955 57.0002C139.985 56.6708 140 56.3372 140 56Z" fill="#B8CEDC"/>
<path d="M139.955 57.0002C139.97 57 139.985 57 140 57C144.971 57 149 61.0294 149 66C149 70.9706 144.971 75 140 75H119C113.477 75 109 70.5228 109 65C109 59.8006 112.968 55.5282 118.041 55.0454M139.955 57.0002C139.985 56.6708 140 56.3372 140 56C140 49.9249 135.075 45 129 45C123.246 45 118.525 49.4172 118.041 55.0454M139.955 57.0002C139.751 59.269 138.857 61.3392 137.486 63M118.041 55.0454C118.357 55.0154 118.676 55 119 55C121.252 55 123.329 55.7442 125.001 57" stroke="#B8CEDC" stroke-width="3" stroke-linecap="round" stroke-linejoin="round"/>
<path d="M110.919 53.3874C109.437 47.9436 112.718 42.3479 118.247 40.8893M110.919 53.3874L109 53.8936M110.919 53.3874C111.287 54.7412 111.915 55.958 112.736 57M118.247 40.8893L117.733 39M118.247 40.8893C122.333 39.8113 126.504 41.2944 129 44.3392M111.953 45.6459L109.929 44.4926M127.281 39.9145L126.114 41.9099" stroke="#B8CEDC" stroke-width="3" stroke-linecap="round"/>
<path d="M102.586 107V95.8H103.898L108.922 104.264H108.218L113.178 95.8H114.49L114.506 107H112.97L112.954 98.216H113.322L108.906 105.64H108.17L103.722 98.216H104.122V107H102.586ZM122.908 107V105.208L122.828 104.872V101.816C122.828 101.165 122.636 100.664 122.252 100.312C121.878 99.9493 121.313 99.768 120.556 99.768C120.054 99.768 119.564 99.8533 119.084 100.024C118.604 100.184 118.198 100.403 117.868 100.68L117.228 99.528C117.665 99.176 118.188 98.9093 118.796 98.728C119.414 98.536 120.06 98.44 120.732 98.44C121.894 98.44 122.79 98.7227 123.42 99.288C124.049 99.8533 124.364 100.717 124.364 101.88V107H122.908ZM120.124 107.096C119.494 107.096 118.94 106.989 118.46 106.776C117.99 106.563 117.628 106.269 117.372 105.896C117.116 105.512 116.988 105.08 116.988 104.6C116.988 104.141 117.094 103.725 117.308 103.352C117.532 102.979 117.889 102.68 118.38 102.456C118.881 102.232 119.553 102.12 120.396 102.12H123.084V103.224H120.46C119.692 103.224 119.174 103.352 118.908 103.608C118.641 103.864 118.508 104.173 118.508 104.536C118.508 104.952 118.673 105.288 119.004 105.544C119.334 105.789 119.793 105.912 120.38 105.912C120.956 105.912 121.457 105.784 121.884 105.528C122.321 105.272 122.636 104.899 122.828 104.408L123.132 105.464C122.929 105.965 122.572 106.365 122.06 106.664C121.548 106.952 120.902 107.096 120.124 107.096ZM131.734 98.44C132.427 98.44 133.035 98.5733 133.558 98.84C134.091 99.1067 134.507 99.512 134.806 100.056C135.105 100.6 135.254 101.288 135.254 102.12V107H133.718V102.296C133.718 101.475 133.515 100.856 133.11 100.44C132.715 100.024 132.155 99.816 131.43 99.816C130.886 99.816 130.411 99.9227 130.006 100.136C129.601 100.349 129.286 100.664 129.062 101.08C128.849 101.496 128.742 102.013 128.742 102.632V107H127.206V98.52H128.678V100.808L128.438 100.2C128.715 99.6453 129.142 99.2133 129.718 98.904C130.294 98.5947 130.966 98.44 131.734 98.44ZM142.625 98.44C143.318 98.44 143.926 98.5733 144.449 98.84C144.982 99.1067 145.398 99.512 145.697 100.056C145.995 100.6 146.145 101.288 146.145 102.12V107H144.609V102.296C144.609 101.475 144.406 100.856 144.001 100.44C143.606 100.024 143.046 99.816 142.321 99.816C141.777 99.816 141.302 99.9227 140.897 100.136C140.491 100.349 140.177 100.664 139.953 101.08C139.739 101.496 139.633 102.013 139.633 102.632V107H138.097V95.128H139.633V100.808L139.329 100.2C139.606 99.6453 140.033 99.2133 140.609 98.904C141.185 98.5947 141.857 98.44 142.625 98.44ZM154.251 107V105.208L154.171 104.872V101.816C154.171 101.165 153.979 100.664 153.595 100.312C153.222 99.9493 152.657 99.768 151.899 99.768C151.398 99.768 150.907 99.8533 150.427 100.024C149.947 100.184 149.542 100.403 149.211 100.68L148.571 99.528C149.009 99.176 149.531 98.9093 150.139 98.728C150.758 98.536 151.403 98.44 152.075 98.44C153.238 98.44 154.134 98.7227 154.763 99.288C155.393 99.8533 155.707 100.717 155.707 101.88V107H154.251ZM151.467 107.096C150.838 107.096 150.283 106.989 149.803 106.776C149.334 106.563 148.971 106.269 148.715 105.896C148.459 105.512 148.331 105.08 148.331 104.6C148.331 104.141 148.438 103.725 148.651 103.352C148.875 102.979 149.233 102.68 149.723 102.456C150.225 102.232 150.897 102.12 151.739 102.12H154.427V103.224H151.803C151.035 103.224 150.518 103.352 150.251 103.608C149.985 103.864 149.851 104.173 149.851 104.536C149.851 104.952 150.017 105.288 150.347 105.544C150.678 105.789 151.137 105.912 151.723 105.912C152.299 105.912 152.801 105.784 153.227 105.528C153.665 105.272 153.979 104.899 154.171 104.408L154.475 105.464C154.273 105.965 153.915 106.365 153.403 106.664C152.891 106.952 152.246 107.096 151.467 107.096ZM153.307 97.24C153.051 97.24 152.822 97.1867 152.619 97.08C152.427 96.9733 152.251 96.8507 152.091 96.712C151.931 96.5627 151.777 96.4347 151.627 96.328C151.478 96.2213 151.329 96.168 151.179 96.168C150.945 96.168 150.753 96.2587 150.603 96.44C150.465 96.6107 150.385 96.8507 150.363 97.16H149.499C149.521 96.5627 149.67 96.088 149.947 95.736C150.225 95.384 150.598 95.208 151.067 95.208C151.323 95.208 151.553 95.2667 151.755 95.384C151.958 95.4907 152.139 95.6187 152.299 95.768C152.459 95.9067 152.609 96.0293 152.747 96.136C152.897 96.2427 153.046 96.296 153.195 96.296C153.43 96.296 153.622 96.2107 153.771 96.04C153.921 95.8693 154.001 95.6347 154.011 95.336H154.875C154.865 95.9013 154.715 96.36 154.427 96.712C154.15 97.064 153.777 97.24 153.307 97.24Z" fill="black" fill-opacity="0.8"/>
<path fill-rule="evenodd" clip-rule="evenodd" d="M21 31.75C15.0629 31.75 10.25 26.9371 10.25 21C10.25 15.0629 15.0629 10.25 21 10.25C26.9371 10.25 31.75 15.0629 31.75 21C31.75 26.9371 26.9371 31.75 21 31.75ZM25.48 18.3776C25.9645 18.1126 26.1425 17.5049 25.8775 17.0204C25.6125 16.5358 25.0049 16.3578 24.5204 16.6228C22.6917 17.6229 21.1796 19.5529 20.1629 21.1096C19.7872 21.685 19.4662 22.2297 19.2094 22.6911C18.9698 22.4587 18.7326 22.257 18.5204 22.0892C18.2427 21.8697 17.9928 21.6965 17.8106 21.5772L17.4956 21.3815C17.0159 21.1079 16.4051 21.275 16.1315 21.7548C15.858 22.2344 16.0249 22.8449 16.5044 23.1187L16.7147 23.2502C16.8575 23.3437 17.0576 23.4823 17.28 23.6581C17.7375 24.0198 18.2313 24.494 18.542 25.0135C18.7327 25.3323 19.0844 25.5191 19.4553 25.4987C19.8261 25.4782 20.1551 25.2536 20.3096 24.9159L20.4079 24.7105C20.4756 24.5721 20.577 24.3697 20.709 24.1204C20.9735 23.6207 21.3581 22.9372 21.8374 22.2032C22.8208 20.6975 24.1086 19.1275 25.48 18.3776Z" fill="#F3541C"/>
</svg>
